<svg version="1.2" xmlns="http://www.w3.org/2000/svg" viewBox="0 0 256 256" width="256" height="256">
	<title>redo-svg-svg</title>
	<style>
		.s0 { fill: #ffffff } 
	</style>
	<path id="Layer" fill-rule="evenodd" class="s0" d="m202.2 167.1c1-2 3.4-2.8 5.4-1.9l7.9 3.8c0 0-22.5 53.5-85.5 56-60-1.5-96.6-48.6-97-96.5-0.4-47.9 37-95.5 95.5-96 57.5-1 79.6 45 79.6 45 1 1.9 1.9 1.7 1.9-0.5v-25q0-0.8 0.3-1.5 0.3-0.8 0.9-1.3 0.5-0.6 1.3-0.9 0.7-0.3 1.5-0.3h6.5c2.2 0 4 1.8 4 4v49q0 0.8-0.3 1.5-0.3 0.8-0.9 1.3-0.5 0.6-1.3 0.9-0.7 0.3-1.5 0.3h-50.5q-0.8 0-1.5-0.3-0.8-0.3-1.3-0.9-0.6-0.5-0.9-1.3-0.3-0.7-0.3-1.5v-6c0-2.2 1.8-4 4-4.1l25.5-0.3c2.2-0.1 3.2-1.7 2.2-3.7 0 0-18.2-41.9-68.7-41.4-49 0.5-82.7 41.9-82.5 83.2 3 55.3 45 82.3 83.5 81.3 54.5 0 72.2-42.9 72.2-42.9z"/>
</svg>